<svg width="25" height="18" viewBox="0 0 25 18" fill="none" xmlns="http://www.w3.org/2000/svg">
<path d="M23.5561 14.4H0.872449C0.641061 14.4 0.41915 14.4948 0.255534 14.6636C0.0919185 14.8324 0 15.0613 0 15.3L0 17.1C0 17.3387 0.0919185 17.5676 0.255534 17.7364C0.41915 17.9052 0.641061 18 0.872449 18H23.5561C23.7875 18 24.0094 17.9052 24.173 17.7364C24.3367 17.5676 24.4286 17.3387 24.4286 17.1V15.3C24.4286 15.0613 24.3367 14.8324 24.173 14.6636C24.0094 14.4948 23.7875 14.4 23.5561 14.4ZM23.5561 7.2H0.872449C0.641061 7.2 0.41915 7.29482 0.255534 7.4636C0.0919185 7.63239 0 7.86131 0 8.1L0 9.9C0 10.1387 0.0919185 10.3676 0.255534 10.5364C0.41915 10.7052 0.641061 10.8 0.872449 10.8H23.5561C23.7875 10.8 24.0094 10.7052 24.173 10.5364C24.3367 10.3676 24.4286 10.1387 24.4286 9.9V8.1C24.4286 7.86131 24.3367 7.63239 24.173 7.4636C24.0094 7.29482 23.7875 7.2 23.5561 7.2ZM23.5561 0H0.872449C0.641061 0 0.41915 0.0948212 0.255534 0.263604C0.0919185 0.432387 0 0.661305 0 0.9L0 2.7C0 2.93869 0.0919185 3.16761 0.255534 3.3364C0.41915 3.50518 0.641061 3.6 0.872449 3.6H23.5561C23.7875 3.6 24.0094 3.50518 24.173 3.3364C24.3367 3.16761 24.4286 2.93869 24.4286 2.7V0.9C24.4286 0.661305 24.3367 0.432387 24.173 0.263604C24.0094 0.0948212 23.7875 0 23.5561 0Z" fill="#D7465B"/>
</svg>
