<svg width="175" height="175" viewBox="0 0 175 175" fill="none" xmlns="http://www.w3.org/2000/svg">
<path d="M58.0709 131.25C-5.03603 38.2861 36.5751 13.3778 44.3042 9.72222C45.0286 9.38194 45.4806 9.21181 45.4952 9.20208C47.5272 8.18611 48.5966 5.92083 48.0667 3.73333C47.5369 1.54583 45.5584 0 43.2786 0H23.5619C5.12369 0 -20.8152 53.4722 28.4813 136.111C29.2154 137.341 53.1417 136.111 53.1417 136.111C55.8591 136.111 59.5779 133.481 58.0709 131.25ZM151.808 0H132.363C130.117 0 128.168 1.54583 127.643 3.73333C127.123 5.92083 128.173 8.18611 130.176 9.20208C130.195 9.21181 130.638 9.38194 131.352 9.72222C138.974 13.3778 180.012 38.2861 117.78 131.25C116.288 133.481 119.958 136.111 122.641 136.111C122.641 136.111 146.237 137.341 146.956 136.111C195.567 53.4722 169.993 0 151.808 0Z" fill="#C1694F"/>
<path d="M33.4882 140.175L33.5076 140.224C33.1965 138.799 59.5778 133.481 58.0708 131.25C-5.0361 38.2861 36.575 13.3778 44.3042 9.72222H23.5521C5.11876 9.72222 -15.8861 63.1944 33.4882 140.175ZM151.817 9.72222H131.352C138.974 13.3778 180.012 38.2861 117.78 131.25C116.287 133.481 142.008 140.19 142.017 140.175C190.706 63.1944 169.998 9.72222 151.817 9.72222Z" fill="#662113"/>
<path d="M48.2028 38.8889C45.4757 38.8889 43.2687 36.7111 43.2687 34.0278C43.2687 17.9083 33.4104 9.72222 23.5521 9.72222C21.2673 9.72222 23.1632 5.92083 23.693 3.73333C24.2278 1.54583 26.2014 0 28.4812 0H53.1319C71.5604 0 77.1361 29.8278 77.7146 33.2257C77.9528 34.6354 77.5493 36.0743 76.616 37.1681C75.668 38.2618 74.2923 38.8889 72.8486 38.8889H48.2028ZM127.512 38.8889C130.2 38.8889 132.373 36.7111 132.373 34.0278C132.373 17.9083 142.095 9.72222 151.817 9.72222C154.068 9.72222 152.197 5.92083 151.676 3.73333C151.156 1.54583 149.207 0 146.956 0H122.651C104.48 0 98.9819 29.8278 98.4132 33.2257C98.175 34.6354 98.5736 36.0743 99.4972 37.1681C100.426 38.2618 101.782 38.8889 103.206 38.8889H127.512Z" fill="#C1694F"/>
<path d="M29.1667 155.556C29.1667 155.556 29.1667 175 48.6111 175H126.389C126.389 175 145.833 175 145.833 155.556V48.6111C145.833 48.6111 145.833 29.1667 126.389 29.1667H48.6111C29.1667 29.1667 29.1667 48.6111 29.1667 48.6111V155.556Z" fill="#BE1931"/>
<path d="M116.667 136.111H58.3333C47.634 136.111 43.75 127.39 43.75 121.528V53.4722C43.75 50.7889 45.9278 48.6111 48.6111 48.6111C51.2944 48.6111 53.4722 50.7889 53.4722 53.4722V121.528C53.5306 123.715 54.4201 126.389 58.3333 126.389H116.667C118.854 126.331 121.528 125.446 121.528 121.528V53.4722C121.528 50.7889 123.701 48.6111 126.389 48.6111C129.077 48.6111 131.25 50.7889 131.25 53.4722V121.528C131.25 132.227 122.529 136.111 116.667 136.111Z" fill="#A0041E"/>
<path d="M77.7778 121.528C77.7778 121.528 77.7778 116.667 82.6389 116.667H92.3611C92.3611 116.667 97.2222 116.667 97.2222 121.528V145.833C97.2222 145.833 97.2222 150.694 92.3611 150.694H82.6389C82.6389 150.694 77.7778 150.694 77.7778 145.833V121.528Z" fill="white"/>
</svg>
